<svg width="59" height="50" viewBox="0 0 59 50" fill="none" xmlns="http://www.w3.org/2000/svg">
<mask id="mask0_82_71" style="mask-type:alpha" maskUnits="userSpaceOnUse" x="0" y="0" width="59" height="50">
<rect width="58.7413" height="50" fill="#D9D9D9"/>
</mask>
<g mask="url(#mask0_82_71)">
<path d="M22.6398 45.8332L21.6608 39.1666C21.1305 38.993 20.6308 38.7846 20.1617 38.5416C19.6926 38.2985 19.2337 38.0381 18.7849 37.7603L11.5035 40.3645L4.77271 30.4687L11.0752 26.4062C11.0344 26.1631 11.014 25.9287 11.014 25.703V24.2968C11.014 24.0711 11.0344 23.8367 11.0752 23.5936L4.77271 19.5311L11.5035 9.63532L18.7849 12.2395C19.2337 11.9617 19.7028 11.7013 20.1923 11.4582C20.6818 11.2152 21.1713 11.0068 21.6608 10.8332L22.6398 4.16656H36.1014L37.0804 10.8332C37.6107 11.0068 38.1104 11.2152 38.5795 11.4582C39.0486 11.7013 39.5076 11.9617 39.9563 12.2395L47.2377 9.63532L53.9685 19.5311L47.6661 23.5936C47.7069 23.8367 47.7273 24.0711 47.7273 24.2968V25.703C47.7273 25.9287 47.6865 26.1631 47.6049 26.4062L53.9073 30.4687L47.1766 40.3645L39.9563 37.7603C39.5076 38.0381 39.0384 38.2985 38.5489 38.5416C38.0594 38.7846 37.5699 38.993 37.0804 39.1666L36.1014 45.8332H22.6398ZM26.9231 41.6666H31.757L32.6136 36.1457C33.8782 35.868 35.051 35.46 36.132 34.9218C37.213 34.3836 38.2022 33.7325 39.0996 32.9687L45.1573 35.1041L47.5437 31.5624L42.2814 28.177C42.4854 27.6909 42.6282 27.1787 42.7098 26.6405C42.7914 26.1023 42.8321 25.5555 42.8321 24.9999C42.8321 24.4443 42.7914 23.8975 42.7098 23.3593C42.6282 22.8211 42.4854 22.3089 42.2814 21.8228L47.5437 18.4374L45.1573 14.8957L39.0996 17.0832C38.2022 16.2846 37.213 15.6162 36.132 15.078C35.051 14.5398 33.8782 14.1318 32.6136 13.8541L31.8182 8.33323H26.9842L26.1276 13.8541C24.863 14.1318 23.6902 14.5398 22.6092 15.078C21.5282 15.6162 20.539 16.2673 19.6416 17.0311L13.5839 14.8957L11.1975 18.4374L16.4598 21.7707C16.2558 22.2916 16.113 22.8124 16.0314 23.3332C15.9499 23.8541 15.9091 24.4096 15.9091 24.9999C15.9091 25.5555 15.9499 26.0937 16.0314 26.6145C16.113 27.1353 16.2558 27.6562 16.4598 28.177L11.1975 31.5624L13.5839 35.1041L19.6416 32.9166C20.539 33.7152 21.5282 34.3836 22.6092 34.9218C23.6902 35.46 24.863 35.868 26.1276 36.1457L26.9231 41.6666ZM29.493 32.2916C31.859 32.2916 33.8782 31.5798 35.5507 30.1562C37.2232 28.7325 38.0594 27.0138 38.0594 24.9999C38.0594 22.986 37.2232 21.2673 35.5507 19.8436C33.8782 18.42 31.859 17.7082 29.493 17.7082C27.0862 17.7082 25.0568 18.42 23.4047 19.8436C21.7526 21.2673 20.9266 22.986 20.9266 24.9999C20.9266 27.0138 21.7526 28.7325 23.4047 30.1562C25.0568 31.5798 27.0862 32.2916 29.493 32.2916Z" fill="#1C1B1F"/>
</g>
</svg>
